<mxfile host="app.diagrams.net" modified="2024-09-06T22:02:39.073Z" agent="Mozilla/5.0 (X11; Linux x86_64; rv:129.0) Gecko/20100101 Firefox/129.0" etag="B0-4j_1kDt7f0Ly8H9VH" version="24.4.14" type="device">
  <diagram name="PÃ¡gina-1" id="HjOHlTpYWBGdXB9K6f7M">
    <mxGraphModel dx="1434" dy="763" grid="1" gridSize="10" guides="1" tooltips="1" connect="1" arrows="1" fold="1" page="1" pageScale="1" pageWidth="850" pageHeight="1100" math="0" shadow="0">
      <root>
        <mxCell id="0" />
        <mxCell id="1" parent="0" />
        <mxCell id="N3ZugQR-nATWhNhorHq9-20" value="" style="rounded=0;whiteSpace=wrap;html=1;" vertex="1" parent="1">
          <mxGeometry x="130" y="60" width="580" height="270" as="geometry" />
        </mxCell>
        <mxCell id="N3ZugQR-nATWhNhorHq9-1" value="&lt;font style=&quot;font-size: 16px;&quot;&gt;Profesor&lt;/font&gt;" style="rounded=0;whiteSpace=wrap;html=1;" vertex="1" parent="1">
          <mxGeometry x="550" y="120" width="90" height="40" as="geometry" />
        </mxCell>
        <mxCell id="N3ZugQR-nATWhNhorHq9-2" value="&lt;font style=&quot;font-size: 16px;&quot;&gt;Materia&lt;/font&gt;" style="rounded=0;whiteSpace=wrap;html=1;" vertex="1" parent="1">
          <mxGeometry x="200" y="120" width="90" height="40" as="geometry" />
        </mxCell>
        <mxCell id="N3ZugQR-nATWhNhorHq9-19" style="edgeStyle=orthogonalEdgeStyle;rounded=0;orthogonalLoop=1;jettySize=auto;html=1;exitX=1;exitY=0.5;exitDx=0;exitDy=0;endArrow=none;endFill=0;" edge="1" parent="1" source="N3ZugQR-nATWhNhorHq9-3" target="N3ZugQR-nATWhNhorHq9-4">
          <mxGeometry relative="1" as="geometry" />
        </mxCell>
        <mxCell id="N3ZugQR-nATWhNhorHq9-3" value="&lt;font style=&quot;font-size: 16px;&quot;&gt;Alumno&lt;/font&gt;" style="rounded=0;whiteSpace=wrap;html=1;" vertex="1" parent="1">
          <mxGeometry x="375" y="245" width="90" height="40" as="geometry" />
        </mxCell>
        <mxCell id="N3ZugQR-nATWhNhorHq9-18" style="edgeStyle=orthogonalEdgeStyle;rounded=0;orthogonalLoop=1;jettySize=auto;html=1;exitX=0.5;exitY=0;exitDx=0;exitDy=0;entryX=0.5;entryY=1;entryDx=0;entryDy=0;endArrow=none;endFill=0;shape=link;" edge="1" parent="1" source="N3ZugQR-nATWhNhorHq9-4" target="N3ZugQR-nATWhNhorHq9-1">
          <mxGeometry relative="1" as="geometry" />
        </mxCell>
        <mxCell id="N3ZugQR-nATWhNhorHq9-4" value="&lt;font style=&quot;font-size: 16px;&quot;&gt;Tomar&lt;/font&gt;" style="rhombus;whiteSpace=wrap;html=1;" vertex="1" parent="1">
          <mxGeometry x="540" y="230" width="110" height="70" as="geometry" />
        </mxCell>
        <mxCell id="N3ZugQR-nATWhNhorHq9-16" style="edgeStyle=orthogonalEdgeStyle;rounded=0;orthogonalLoop=1;jettySize=auto;html=1;exitX=0;exitY=0.5;exitDx=0;exitDy=0;shape=link;" edge="1" parent="1" source="N3ZugQR-nATWhNhorHq9-15" target="N3ZugQR-nATWhNhorHq9-2">
          <mxGeometry relative="1" as="geometry" />
        </mxCell>
        <mxCell id="N3ZugQR-nATWhNhorHq9-17" style="edgeStyle=orthogonalEdgeStyle;rounded=0;orthogonalLoop=1;jettySize=auto;html=1;exitX=1;exitY=0.5;exitDx=0;exitDy=0;entryX=0;entryY=0.5;entryDx=0;entryDy=0;endArrow=none;endFill=0;shape=link;" edge="1" parent="1" source="N3ZugQR-nATWhNhorHq9-15" target="N3ZugQR-nATWhNhorHq9-1">
          <mxGeometry relative="1" as="geometry" />
        </mxCell>
        <mxCell id="N3ZugQR-nATWhNhorHq9-22" style="edgeStyle=orthogonalEdgeStyle;rounded=0;orthogonalLoop=1;jettySize=auto;html=1;exitX=0.5;exitY=1;exitDx=0;exitDy=0;entryX=0.5;entryY=0;entryDx=0;entryDy=0;endArrow=none;endFill=0;" edge="1" parent="1" source="N3ZugQR-nATWhNhorHq9-15" target="N3ZugQR-nATWhNhorHq9-3">
          <mxGeometry relative="1" as="geometry" />
        </mxCell>
        <mxCell id="N3ZugQR-nATWhNhorHq9-15" value="&lt;font style=&quot;font-size: 16px;&quot;&gt;Tener&lt;/font&gt;" style="rhombus;whiteSpace=wrap;html=1;" vertex="1" parent="1">
          <mxGeometry x="365" y="105" width="110" height="70" as="geometry" />
        </mxCell>
      </root>
    </mxGraphModel>
  </diagram>
</mxfile>
